<svg width="31" height="32" viewBox="0 0 31 32" fill="none" xmlns="http://www.w3.org/2000/svg">
<path d="M0.691917 28.3482C0.841978 28.2558 1.00098 28.1729 1.16496 28.1094C1.51207 27.9749 1.75057 27.7301 1.83758 27.38C1.9649 26.8666 2.36269 26.6401 2.79377 26.5837C3.62275 26.4756 4.14018 25.9246 4.58192 25.3475C4.91147 24.9168 5.03603 24.3255 4.83169 23.747C4.7846 23.6134 4.78079 23.5058 4.83462 23.3497C4.90225 23.1544 4.82694 22.9066 4.80221 22.6827C4.55939 20.486 3.69304 18.5226 2.544 16.6657C2.4354 16.4902 2.3268 16.3149 2.21715 16.1403C1.93536 15.6914 1.81937 15.2066 1.75311 14.6743C1.61304 13.5485 1.57087 12.4069 1.22806 11.3072C0.873724 10.1706 0.899393 9.01203 1.10665 7.84157C1.21365 7.23697 1.1893 6.61005 1.25197 5.99601C1.39524 4.58748 1.72435 3.22605 2.41183 1.97675C2.71819 1.42012 3.07584 0.890822 3.42841 0.36097C3.57367 0.142668 3.74554 -0.0879451 4.07581 0.0336831C4.2495 0.0976718 4.48061 0.539796 4.46637 0.77996C4.46234 0.847979 4.42855 0.916882 4.43572 0.982416C4.4508 1.12028 4.48348 1.25615 4.50965 1.39285C4.54857 1.59757 4.59975 1.80102 4.62383 2.00734C4.64607 2.19815 4.6405 2.39254 4.64547 2.58534C4.6511 2.81037 4.6675 3.03607 4.65601 3.26023C4.63708 3.63234 4.61278 3.98895 4.79884 4.34776C4.89927 4.54171 4.84301 4.81158 4.88806 5.04109C4.93554 5.28324 5.02482 5.51684 5.08671 5.75628C5.17996 6.11581 5.28271 6.47418 5.35006 6.83884C5.46766 7.47338 5.54241 8.1163 5.66995 8.74879C5.83646 9.57479 6.04185 10.393 6.22029 11.2167C6.29664 11.5693 6.34059 11.9288 6.41242 12.2824C6.43715 12.4043 6.50677 12.5164 6.5473 12.6359C6.61692 12.8415 6.6809 13.049 6.74396 13.2567C6.755 13.2931 6.73904 13.34 6.75455 13.3731C6.95883 13.8052 7.16747 14.2349 7.37308 14.6663C7.48482 14.9005 7.59386 15.1364 7.70196 15.3723C7.72223 15.4164 7.72836 15.4671 7.74906 15.5111C8.18472 16.4283 8.6492 17.3334 9.05086 18.2653C9.49414 19.2938 9.79443 20.3631 9.92638 21.4883C10.0611 22.6348 10.2859 23.7717 10.4999 24.9075C10.5657 25.2564 10.7171 25.5909 10.8464 25.9252C10.9297 26.141 11.2356 26.2561 11.4739 26.2005C12.7362 25.9058 14.0029 25.5873 15.3044 25.6098C16.0838 25.6234 16.8589 25.8175 17.6381 25.9144C19.9957 26.2073 22.3528 26.5032 24.7126 26.7765C26.3752 26.9691 28.0412 27.0049 29.7041 26.7562C29.7913 26.7431 29.8798 26.7382 29.9681 26.7357C29.9935 26.735 30.0197 26.7557 30.11 26.7943C29.9834 26.8837 29.9061 26.9752 29.8117 26.999C29.3946 27.1038 28.9738 27.1961 28.5516 27.2795C28.1982 27.3493 27.8335 27.3725 27.4868 27.4656C26.689 27.68 25.8961 27.5949 25.0953 27.5021C24.427 27.4246 23.7546 27.363 23.0826 27.3453C22.8281 27.3385 22.5735 27.498 22.3124 27.5381C22.0284 27.5818 21.7367 27.5811 21.4481 27.5885C21.1186 27.5971 20.7886 27.5912 20.459 27.595C20.1065 27.5993 19.7467 27.5642 19.4034 27.6238C18.8475 27.7207 18.3019 27.8793 17.753 28.0149C17.2054 28.1503 16.6593 28.2926 16.1111 28.4262C15.7243 28.5206 15.3353 28.6068 14.9465 28.6922C14.8913 28.7044 14.8201 28.7123 14.7742 28.6882C14.5617 28.5762 14.4444 28.6542 14.3962 28.9013C14.1497 28.8267 13.9274 28.7594 13.7049 28.692C13.6877 28.7179 13.6704 28.7438 13.6533 28.7697C14.5965 29.4024 15.5227 30.0624 16.4875 30.6602C17.4588 31.2619 18.5677 31.5255 19.6895 31.735C19.6843 31.7818 19.6791 31.8287 19.6739 31.8758C19.4237 31.9132 19.1623 32.0159 18.9256 31.9751C18.3449 31.8751 17.7759 31.708 17.2017 31.5699C17.087 31.5424 16.9909 31.487 16.8753 31.6336C16.8129 31.7129 16.6003 31.698 16.4586 31.6861C16.107 31.6564 15.7582 31.5906 15.4067 31.5655C15.1857 31.5498 14.9611 31.5818 14.7381 31.591C14.6512 31.5946 14.5431 31.6291 14.48 31.591C13.9562 31.2732 13.3728 31.3923 12.8198 31.3849C11.9289 31.373 11.0351 31.423 10.1455 31.4867C9.27711 31.5489 8.45746 31.3946 7.66613 31.054C6.6099 30.5992 5.53115 30.2235 4.40597 29.966C3.77524 29.8217 3.14093 29.6644 2.59579 29.2436C2.10767 28.867 1.52471 28.8584 0.942184 29.0711C0.652496 29.177 0.354691 29.2608 -3.43323e-05 29.3738C0.095644 28.8861 0.328745 28.5711 0.691917 28.3482Z" fill="white" fill-opacity="0.7"/>
</svg>
